<svg width="45" height="45" viewBox="0 0 45 45" fill="none" xmlns="http://www.w3.org/2000/svg">
<g clip-path="url(#clip0_238_6)">
<path d="M22.5 0C18.0499 0 13.6998 1.3196 9.99968 3.79193C6.29957 6.26426 3.41569 9.77828 1.71272 13.8896C0.0097489 18.001 -0.435826 22.525 0.432341 26.8895C1.30051 31.2541 3.44343 35.2632 6.59011 38.4099C9.73679 41.5566 13.7459 43.6995 18.1105 44.5677C22.475 45.4358 26.999 44.9902 31.1104 43.2873C35.2217 41.5843 38.7357 38.7004 41.2081 35.0003C43.6804 31.3002 45 26.9501 45 22.5C44.9937 16.5346 42.6211 10.8153 38.4029 6.59705C34.1847 2.37885 28.4654 0.00629961 22.5 0ZM34.6154 24.2308H22.5C22.041 24.2308 21.6007 24.0484 21.2762 23.7238C20.9516 23.3993 20.7692 22.959 20.7692 22.5V10.3846C20.7692 9.92558 20.9516 9.48536 21.2762 9.16077C21.6007 8.83619 22.041 8.65384 22.5 8.65384C22.959 8.65384 23.3993 8.83619 23.7238 9.16077C24.0484 9.48536 24.2308 9.92558 24.2308 10.3846V20.7692H34.6154C35.0744 20.7692 35.5146 20.9516 35.8392 21.2762C36.1638 21.6007 36.3462 22.041 36.3462 22.5C36.3462 22.959 36.1638 23.3993 35.8392 23.7238C35.5146 24.0484 35.0744 24.2308 34.6154 24.2308Z" fill="#583F39"/>
</g>
<defs>
<clipPath id="clip0_238_6">
<rect width="45" height="45" fill="white"/>
</clipPath>
</defs>
</svg>
