<svg width="45" height="45" viewBox="0 0 45 45" fill="none" xmlns="http://www.w3.org/2000/svg">
<g clip-path="url(#clip0_237_2)">
<path d="M12.5 27C11.7917 27 11.1975 26.784 10.7175 26.352C10.2375 25.92 9.99834 25.386 10 24.75C10 24.1125 10.24 23.5777 10.72 23.1457C11.2 22.7137 11.7933 22.4985 12.5 22.5C13.2083 22.5 13.8025 22.716 14.2825 23.148C14.7625 23.58 15.0017 24.114 15 24.75C15 25.3875 14.76 25.9222 14.28 26.3542C13.8 26.7862 13.2067 27.0015 12.5 27ZM22.5 27C21.7917 27 21.1975 26.784 20.7175 26.352C20.2375 25.92 19.9983 25.386 20 24.75C20 24.1125 20.24 23.5777 20.72 23.1457C21.2 22.7137 21.7933 22.4985 22.5 22.5C23.2083 22.5 23.8025 22.716 24.2825 23.148C24.7625 23.58 25.0017 24.114 25 24.75C25 25.3875 24.76 25.9222 24.28 26.3542C23.8 26.7862 23.2067 27.0015 22.5 27ZM32.5 27C31.7917 27 31.1975 26.784 30.7175 26.352C30.2375 25.92 29.9983 25.386 30 24.75C30 24.1125 30.24 23.5777 30.72 23.1457C31.2 22.7137 31.7933 22.4985 32.5 22.5C33.2083 22.5 33.8025 22.716 34.2825 23.148C34.7625 23.58 35.0017 24.114 35 24.75C35 25.3875 34.76 25.9222 34.28 26.3542C33.8 26.7862 33.2067 27.0015 32.5 27ZM5 45C3.625 45 2.4475 44.559 1.4675 43.677C0.487504 42.795 -0.00166242 41.736 4.24448e-06 40.5V9C4.24448e-06 7.7625 0.490004 6.70275 1.47 5.82075C2.45 4.93875 3.62667 4.4985 5 4.5H7.5V0H12.5V4.5H32.5V0H37.5V4.5H40C41.375 4.5 42.5525 4.941 43.5325 5.823C44.5125 6.705 45.0017 7.764 45 9V40.5C45 41.7375 44.51 42.7972 43.53 43.6792C42.55 44.5612 41.3733 45.0015 40 45H5ZM5 40.5H40V18H5V40.5Z" fill="#583F39"/>
</g>
<defs>
<clipPath id="clip0_237_2">
<rect width="45" height="45" fill="white"/>
</clipPath>
</defs>
</svg>
