<svg width="50" height="50" viewBox="0 0 50 50" fill="none" xmlns="http://www.w3.org/2000/svg">
<path d="M32.5 25C32.5 26.9891 31.7098 28.8968 30.3033 30.3033C28.8968 31.7098 26.9891 32.5 25 32.5C23.0109 32.5 21.1032 31.7098 19.6967 30.3033C18.2902 28.8968 17.5 26.9891 17.5 25C17.5 24.5725 17.545 24.155 17.6225 23.75H15V33.7425C15 34.4375 15.5625 35 16.2575 35H33.745C34.0781 34.9993 34.3973 34.8666 34.6326 34.6308C34.8679 34.3951 35 34.0756 35 33.7425V23.75H32.3775C32.455 24.155 32.5 24.5725 32.5 25ZM25 30C25.6568 29.9998 26.3071 29.8703 26.9138 29.6188C27.5205 29.3673 28.0718 28.9988 28.5361 28.5343C29.0003 28.0698 29.3686 27.5183 29.6198 26.9115C29.871 26.3046 30.0002 25.6543 30 24.9975C29.9998 24.3407 29.8703 23.6904 29.6188 23.0837C29.3673 22.477 28.9988 21.9257 28.5343 21.4614C28.0698 20.9972 27.5183 20.6289 26.9115 20.3777C26.3046 20.1265 25.6543 19.9973 24.9975 19.9975C23.6711 19.9978 22.3991 20.5251 21.4614 21.4632C20.5238 22.4014 19.9972 23.6736 19.9975 25C19.9978 26.3264 20.5251 27.5984 21.4632 28.5361C22.4014 29.4737 23.6736 30.0003 25 30ZM31 19.75H33.9975C34.1966 19.75 34.3877 19.6711 34.5287 19.5305C34.6698 19.3899 34.7493 19.1991 34.75 19V16.0025C34.75 15.8029 34.6707 15.6115 34.5296 15.4704C34.3885 15.3293 34.1971 15.25 33.9975 15.25H31C30.8004 15.25 30.609 15.3293 30.4679 15.4704C30.3268 15.6115 30.2475 15.8029 30.2475 16.0025V19C30.25 19.4125 30.5875 19.75 31 19.75ZM25 1C18.6348 1 12.5303 3.52856 8.02944 8.02944C3.52856 12.5303 1 18.6348 1 25C1 31.3652 3.52856 37.4697 8.02944 41.9706C12.5303 46.4714 18.6348 49 25 49C28.1517 49 31.2726 48.3792 34.1844 47.1731C37.0962 45.967 39.742 44.1992 41.9706 41.9706C44.1992 39.742 45.967 37.0962 47.1731 34.1844C48.3792 31.2726 49 28.1517 49 25C49 21.8483 48.3792 18.7274 47.1731 15.8156C45.967 12.9038 44.1992 10.258 41.9706 8.02944C39.742 5.80083 37.0962 4.033 34.1844 2.82689C31.2726 1.62078 28.1517 1 25 1ZM37.5 34.7225C37.5 36.25 36.25 37.5 34.7225 37.5H15.2775C13.75 37.5 12.5 36.25 12.5 34.7225V15.2775C12.5 13.75 13.75 12.5 15.2775 12.5H34.7225C36.25 12.5 37.5 13.75 37.5 15.2775V34.7225Z" fill="#F8F8F8"/>
</svg>
