<svg width="50" height="62" viewBox="0 0 50 62" fill="none" xmlns="http://www.w3.org/2000/svg">
<path d="M16.8675 0L31.5036 10.0358L48.1928 1.8633V25.9332H43.3735V10.3586L33.7349 15.0791V25.9332H28.9157V14.8158L19.2771 8.20927V42.7142L23.7783 45.8009L21.3494 50.6913L16.6892 47.4943L0 55.6667V11.5649L16.8675 0ZM14.4578 42.4509V8.20927L4.81928 14.8158V47.1714L14.4578 42.4509ZM38.5542 34.4285C36.7968 34.4285 35.1113 35.249 33.8686 36.7094C32.6259 38.1698 31.9277 40.1505 31.9277 42.2159C31.9277 45.7612 33.6988 49.165 35.8193 51.9061C36.8 53.1748 37.788 54.2112 38.5542 54.9503C39.3205 54.214 40.3084 53.1748 41.2892 51.9061C43.4096 49.165 45.1807 45.7612 45.1807 42.2159C45.1807 40.1505 44.4826 38.1698 43.2399 36.7094C41.9972 35.249 40.3117 34.4285 38.5542 34.4285ZM38.5542 61.8994L37.2169 60.8545L37.212 60.8517L37.2024 60.8432L37.1735 60.8205L37.0771 60.7412C36.5807 60.3299 36.0961 59.8992 35.6241 59.4499C34.4226 58.3067 33.2957 57.0591 32.253 55.7177C29.8554 52.6197 27.1084 47.8822 27.1084 42.2159C27.1084 38.6485 28.3143 35.2272 30.4608 32.7047C32.6073 30.1821 35.5186 28.765 38.5542 28.765C41.5898 28.765 44.5011 30.1821 46.6476 32.7047C48.7941 35.2272 50 38.6485 50 42.2159C50 47.8822 47.253 52.6197 44.8554 55.7177C43.4007 57.5851 41.7839 59.2688 40.0313 60.7412L39.9349 60.8205L39.906 60.8432L39.8964 60.8517H39.8916L38.5542 61.8994ZM35.5422 40.092H41.5663V45.7556H35.5422V40.092Z" fill="#583F39"/>
</svg>
