<svg width="50" height="62" viewBox="0 0 50 62" fill="none" xmlns="http://www.w3.org/2000/svg">
<path d="M25.8621 60.9322V42.5559C25.8621 42.022 25.6328 40.6215 25.1569 40.6215C24.681 40.6215 24.1379 41.0548 24.1379 41.5887V60.9322C24.1379 61.4661 24.6793 61.8994 25.1569 61.8994C25.6345 61.8994 25.8621 61.4661 25.8621 60.9322ZM26.019 3.02147V0.967178C26.019 0.710667 25.9281 0.464661 25.7665 0.28328C25.6048 0.101899 25.3855 0 25.1569 0C24.9283 0 24.709 0.101899 24.5473 0.28328C24.3857 0.464661 24.2948 0.710667 24.2948 0.967178V3.02147C24.2948 3.27798 24.3857 3.52398 24.5473 3.70536C24.709 3.88674 24.9283 3.98864 25.1569 3.98864C25.3855 3.98864 25.6048 3.88674 25.7665 3.70536C25.9281 3.52398 26.019 3.27798 26.019 3.02147ZM6.7069 6.71415L0.556897 12.1265C0.382405 12.3066 0.242891 12.5251 0.147071 12.7684C0.0512505 13.0117 0.00118411 13.2745 0 13.5405C0 14.0724 0.203448 14.5889 0.610345 15.0067L6.65345 20.3165C7.18276 20.864 8.12586 21.2779 8.84828 21.2779H32.6897C33.6776 21.2779 34.4828 20.3823 34.4828 19.2797V7.80126C34.4828 6.69868 33.6776 5.80307 32.6897 5.80307H8.84828C8.12586 5.80307 7.18276 6.21702 6.7069 6.71415ZM32.7586 19.2797C32.7586 19.3088 32.7276 19.3436 32.6897 19.3436H8.84828C8.55517 19.3436 8.03621 19.1172 7.77069 18.8445L1.67414 13.5966L7.82241 8.18426C8.03793 7.96375 8.55517 7.73743 8.84828 7.73743L32.7586 7.80126V19.2797ZM43.3466 24.1737C42.8172 23.6262 41.8741 23.2123 41.1517 23.2123H17.3103C16.3224 23.2123 15.5172 24.1079 15.5172 25.2105V36.6909C15.5172 37.7915 16.3224 38.6871 17.3103 38.6871H41.1517C41.8741 38.6871 42.8172 38.2732 43.2948 37.7761L49.4431 32.3637C49.6176 32.1837 49.7571 31.9651 49.8529 31.7218C49.9487 31.4785 49.9988 31.2157 50 30.9497C49.9964 30.6708 49.9402 30.3959 49.835 30.1432C49.7298 29.8904 49.578 29.6656 49.3897 29.4835L43.3466 24.1737ZM17.2414 25.1466H41.1517C41.4448 25.1466 41.9638 25.373 42.2293 25.6457L48.3259 30.8936L42.1776 36.3059C41.881 36.5623 41.5248 36.7174 41.1517 36.7528H17.2414V25.1466Z" fill="#583F39"/>
</svg>
