<svg width="45" height="45" viewBox="0 0 45 45" fill="none" xmlns="http://www.w3.org/2000/svg">
<g clip-path="url(#clip0_238_4)">
<path d="M31.5 39V45H0V39C0 39 0 27.0001 15.75 27.0001C31.5 27.0001 31.5 39 31.5 39ZM23.625 10.5001C23.625 8.42342 23.1631 6.39336 22.2978 4.66665C21.4325 2.93994 20.2026 1.59414 18.7636 0.79942C17.3247 0.00470297 15.7413 -0.203231 14.2137 0.201912C12.6861 0.607055 11.2829 1.60708 10.1815 3.07553C9.0802 4.54397 8.33017 6.41489 8.02632 8.45168C7.72246 10.4885 7.87841 12.5997 8.47445 14.5183C9.07049 16.4369 10.0798 18.0768 11.3749 19.2305C12.6699 20.3843 14.1925 21.0001 15.75 21.0001C17.8386 21.0001 19.8416 19.8938 21.3185 17.9247C22.7953 15.9556 23.625 13.2849 23.625 10.5001ZM31.365 27.0001C32.7482 28.4273 33.88 30.2413 34.6808 32.3146C35.4816 34.3878 35.9319 36.6698 36 39V45H45V39C45 39 45 28.1101 31.365 27.0001ZM29.25 0.000157736C27.7013 -0.0113404 26.1867 0.606023 24.9075 1.77015C26.2742 4.31635 27.0091 7.36899 27.0091 10.5001C27.0091 13.6313 26.2742 16.6839 24.9075 19.2301C26.1867 20.3942 27.7013 21.0116 29.25 21.0001C31.3386 21.0001 33.3416 19.8938 34.8185 17.9247C36.2953 15.9556 37.125 13.2849 37.125 10.5001C37.125 7.71536 36.2953 5.04465 34.8185 3.07553C33.3416 1.1064 31.3386 0.000157736 29.25 0.000157736Z" fill="#583F39"/>
</g>
<defs>
<clipPath id="clip0_238_4">
<rect width="45" height="45" fill="white"/>
</clipPath>
</defs>
</svg>
